# xmcd
#
# Track frame offsets:
#	150
#	14640
#	28225
#	43752
#	67008
#	82693
#	94371
#	112453
#	123022
#	142450
#	154519
#	168177
#	180832
#	195070
#	208004
#
# Disc length: 2900 seconds
# Revision: 0
# Processed by: cddbd v1.5.2PL0 Copyright (c) Steve Scherf et al.
# Submitted via: dBpowerAMP V12.0
#
DISCID=cb0b520f
DTITLE=Various Artist - The Blues Magazine: Juke-Shakin' Sounds
DYEAR=2012
DGENRE=Blues
TTITLE0=Lazy Lester - Scratch My Back
TTITLE1=Bob Corritore and Friends - Things You Do
TTITLE2=Steve Hooker - Sugar Devil
TTITLE3=The Mannish Boys - Death Letter
TTITLE4=James 'Super Chikan' Johnson - Fred's Dollar Store
TTITLE5=Andre Williams and The Sadies - Bored
TTITLE6=Hound-Dog Taylor and The Houserockers - Roll Your Moneymaker
TTITLE7=Big George Brock - No No Baby
TTITLE8=Milton Hopkins and Jewel Brown - Jerry
TTITLE9=Giles Robson and The Dirty Aces - Magic Tricks
TTITLE10=Half Deaf Clatch - Ol' Death Train
TTITLE11=The Dublo - Yer Zero Blues
TTITLE12=The Shakedowns - Any Drug I've Done
TTITLE13=Pepe Belmonte - Mountain With A Moving Peak
TTITLE14=Monkey Island - Birdsong
EXTD=
EXTT0=
EXTT1=
EXTT2=
EXTT3=
EXTT4=
EXTT5=
EXTT6=
EXTT7=
EXTT8=
EXTT9=
EXTT10=
EXTT11=
EXTT12=
EXTT13=
EXTT14=
PLAYORDER=
